# xmcd
# 
# Track frame offsets:
#   150
#   23539
#   39000
#   51210
#   65194
#   77519
#   89902
#   109919
#   127735
#   141552
#   159771
#   172923
#   188176
#   198852
# 
# Disc length: 2862 seconds
# 
# Revision: 3
# Processed by: cddbd v1.5.2PL0 Copyright (c) Steve Scherf et al.
# Submitted via: Synapstar 1.0 
# 
DISCID=b20b2c0e
DTITLE=Various Artist - NuTech Karaoke vol 52
DYEAR=2003
DGENRE=Country
TTITLE0=Sandi Patti) - Hand On My Shoulder
TTITLE1=Brooks and Dunn - I'll Never Forget My Heart
TTITLE2=Sawyer Brown - This Time
TTITLE3=George Jone S,Alan Jackson - A Good Year For The Roses
TTITLE4=Doug Supernaw - What'll You Do About Me
TTITLE5=Asleep - Corina, Corina
TTITLE6=Toby Keith - Upstairs Downtown
TTITLE7=Billy Dean - Wish You Were Here
TTITLE8=Patti Loveless - Here I Am
TTITLE9=Randy Travis - I Told You So
TTITLE10=Randy Travis - How Do I Wrap My Heart Up
TTITLE11=Tracy Byrd - Red Neck Roses
TTITLE12=GeorgeJones - Never Bite A Bullet Like This
TTITLE13=Daron Norwood - If It Wasn't For Her, I Wouldn't Have You
EXTD=MediaType: Karaoke CD+G Producer: Other
EXTT0=
EXTT1=
EXTT2=
EXTT3=
EXTT4=
EXTT5=
EXTT6=
EXTT7=
EXTT8=
EXTT9=
EXTT10=
EXTT11=
EXTT12=
EXTT13=
PLAYORDER=
